<?xml version="1.0" encoding="iso-8859-1"?>
<!-- Uploaded to: SVG Repo, www.svgrepo.com, Generator: SVG Repo Mixer Tools -->
<!DOCTYPE svg PUBLIC "-//W3C//DTD SVG 1.1//EN" "http://www.w3.org/Graphics/SVG/1.1/DTD/svg11.dtd">
<svg fill="#000000" height="60px" width="60px" version="1.1" id="Capa_1" xmlns="http://www.w3.org/2000/svg" xmlns:xlink="http://www.w3.org/1999/xlink" 
	 viewBox="0 0 299.957 299.957" xml:space="preserve">
<path d="M227.864,39.423c8.776-2.115,15.304-9.997,15.304-19.423c0-11.046-8.954-20-20-20h-22.017c-11.046,0-20,8.954-20,20
	c0,4.915,1.78,9.409,4.72,12.891l-35.893,65.884l-35.893-65.884c2.941-3.482,4.72-7.976,4.72-12.891c0-11.046-8.954-20-20-20H76.789
	c-11.046,0-20,8.954-20,20c0,9.426,6.528,17.307,15.304,19.423l57.884,106.251v114.284h-4.581c-11.046,0-20,8.954-20,20
	s8.954,20,20,20h49.163c11.046,0,20-8.954,20-20s-8.954-20-20-20h-4.582v-114.28L227.864,39.423z"/>
</svg>